
<svg width="128px" height="128px" viewBox="0 0 128 128" version="1.1" xmlns="http://www.w3.org/2000/svg" xmlns:xlink="http://www.w3.org/1999/xlink">
    <g id="页面-1" stroke="none" stroke-width="1" fill="none" fill-rule="evenodd">
        <g id="filecoin" transform="translate(0.000000, 0.000015)" fill-rule="nonzero">
            <path d="M63.998672,127.999985 C28.7994024,127.999985 0,99.2005827 0,63.6813197 C0.319993375,28.4820501 28.7994024,-0.317352286 64.3186654,0.00264108897 C99.517935,0.322634339 127.997344,28.8020435 127.997344,64.6412998 C127.677351,99.5205761 99.1979416,127.999985 63.998672,127.999985" id="路径" fill="#0090FF"></path>
            <path d="M70.0785459,56.3214725 L68.1585858,66.56126 L86.3982073,69.1212068 L85.1182338,73.9211072 L67.1986056,71.3611603 C65.9186321,75.521074 65.2786455,80.0009811 63.6786786,83.8409013 C62.0787119,88.3208083 60.478745,92.8007155 58.5587849,96.9606292 C55.998838,102.400516 51.518931,106.240437 45.4390571,107.200417 C41.9191301,107.840403 38.0792099,107.52041 35.1992696,105.280456 C34.2392895,104.64047 33.2793095,103.360496 33.2793095,102.400516 C33.2793095,101.120543 33.9192962,99.5205761 34.8792762,98.8805893 C35.519263,98.560596 37.1192297,98.8805893 38.0792099,99.2005827 C39.03919,100.160563 39.99917,101.440536 40.6391567,102.72051 C42.5591169,105.280456 45.1190637,105.60045 47.6790106,103.68049 C50.5589509,101.120543 52.1589176,97.6006158 53.1188977,94.080689 C55.0388579,86.4008483 56.9588181,79.0410011 58.5587849,71.3611603 L58.5587849,70.081187 L41.5991369,67.52124 L42.2391235,62.7213396 L59.8387584,65.2812865 L62.0787119,55.3614923 L43.8390904,52.4815521 L44.479077,47.3616583 L63.3586852,49.9216052 C63.998672,48.0016451 64.3186654,46.4016782 64.9586521,44.8017115 C66.5586189,39.041831 68.1585857,33.2819505 71.998506,28.1620567 C75.8384262,23.042163 80.3183334,19.8422293 87.038194,20.1622227 C89.9181343,20.1622227 92.7980745,21.1222028 94.7180346,23.3621563 C95.038028,23.6821497 95.6780146,24.3221365 95.6780146,24.9621231 C95.6780146,26.2420966 95.6780146,27.8420633 94.7180346,28.8020435 C93.4380611,29.7620236 91.8380944,29.4420302 90.5581209,28.1620567 C89.5981407,27.2020766 88.9581541,26.2420966 87.998174,25.2821165 C86.0782139,22.7221696 83.1982736,22.4021762 80.9583201,24.6421297 C79.3583534,26.2420965 77.7583865,28.4820501 76.7984064,30.7220036 C74.5584529,37.4418642 72.958486,44.4817181 70.7185326,51.521572 L88.3181674,54.0815188 L87.038194,58.8814193 L70.0785459,56.3214725" id="路径" fill="#FFFFFF"></path>
        </g>
    </g>
</svg>