<svg xmlns="http://www.w3.org/2000/svg" xmlns:xlink="http://www.w3.org/1999/xlink" fill="none" version="1.1" width="78.5322265625" height="30" viewBox="0 0 78.5322265625 30"><defs><linearGradient x1="0.4507807791233063" y1="1.369888186454773" x2="0.540416419506073" y2="-0.2146553099155426" id="master_svg0_79_13591"><stop offset="0%" stop-color="#738C90" stop-opacity="1"/><stop offset="20.000000298023224%" stop-color="#DDECF2" stop-opacity="1"/><stop offset="100%" stop-color="#FFFFFF" stop-opacity="1"/></linearGradient><linearGradient x1="0.46392470598220825" y1="1.3765605688095093" x2="0.5295523405075073" y2="-0.22089171409606934" id="master_svg1_79_13587"><stop offset="0%" stop-color="#738C90" stop-opacity="1"/><stop offset="20.000000298023224%" stop-color="#DDECF2" stop-opacity="1"/><stop offset="100%" stop-color="#FFFFFF" stop-opacity="1"/></linearGradient><linearGradient x1="-0.03598080947995186" y1="0.742534875869751" x2="0.6669509410858154" y2="-0.013969829306006432" id="master_svg2_79_13583"><stop offset="0%" stop-color="#738C90" stop-opacity="1"/><stop offset="20.000000298023224%" stop-color="#DDECF2" stop-opacity="1"/><stop offset="100%" stop-color="#FFFFFF" stop-opacity="1"/></linearGradient><linearGradient x1="0.9517552852630615" y1="0.49994924664497375" x2="0.054615434259176254" y2="0.49994924664497375" id="master_svg3_79_13579"><stop offset="0%" stop-color="#856AAD" stop-opacity="1"/><stop offset="51.99999809265137%" stop-color="#35AEE5" stop-opacity="1"/><stop offset="100%" stop-color="#7BC174" stop-opacity="1"/></linearGradient></defs><g style="mix-blend-mode:passthrough"><g><path d="M42.98867466674805,7.575293510437012L42.98867466674805,5.457294740197011L36.41706466674805,5.457294740197011L36.41706466674805,15.112413510437012L38.79296466674805,15.112413510437012L38.79296466674805,11.377703510437012L42.37776466674805,11.377703510437012L42.37776466674805,9.259703510437012L38.79296466674805,9.259703510437012L38.79296466674805,7.575293510437012L42.98867466674805,7.575293510437012ZM50.893264666748045,15.112413510437012L50.893264666748045,12.994413510437012L46.83296466674805,12.994413510437012L46.83296466674805,5.457294125317012L44.457084666748045,5.457294125317012L44.457084666748045,15.112413510437012L50.893264666748045,15.112413510437012ZM60.11486466674805,15.112413510437012L56.597664666748045,5.457293510437012L54.76496466674804,5.457293510437012L51.24786466674804,15.112413510437012L53.733364666748045,15.112413510437012L54.208964666748045,13.673003510437011L57.182864666748046,13.673003510437011L57.63096466674804,15.112413510437012L60.116464666748044,15.112413510437012L60.11486466674805,15.112413510437012ZM56.55736466674804,11.690403510437012L54.87296466674805,11.690403510437012L55.74176466674805,9.117853510437012L56.55576466674805,11.690403510437012L56.55736466674804,11.690403510437012ZM70.05686466674806,15.112413510437012L70.05686466674806,5.457294125317012L67.72126466674806,5.457294125317012L65.54846466674805,9.714253510437011L63.37566466674805,5.457294125317012L61.04006466674805,5.457294125317012L61.04006466674805,15.112413510437012L63.415964666748046,15.112413510437012L63.415964666748046,10.487943510437011L64.78766466674804,12.87351351043701L66.30926466674805,12.87351351043701L67.68096466674805,10.487943510437011L67.68096466674805,15.112413510437012L70.05686466674806,15.112413510437012ZM78.53206466674806,15.112413510437012L78.53206466674806,12.994413510437012L74.33636466674804,12.994413510437012L74.33636466674804,11.297103510437012L77.92116466674804,11.297103510437012L77.92116466674804,9.179103510437011L74.33636466674804,9.179103510437011L74.33636466674804,7.5769035104370115L78.53206466674806,7.5769035104370115L78.53206466674806,5.458906340437012L71.96046466674804,5.458906340437012L71.96046466674804,15.114023510437011L78.53206466674806,15.114023510437011L78.53206466674806,15.112413510437012Z" fill-rule="evenodd" fill="url(#master_svg0_79_13591)" fill-opacity="1"/></g><g><path d="M40.26137466674805,24.517679861450194L40.26137466674805,23.922899861450194L37.081155666748046,23.922899861450194L37.081155666748046,18.295856061450195L36.41706466674805,18.295856061450195L36.41706466674805,24.517679861450194L40.26137466674805,24.517679861450194ZM45.71918466674805,24.517679861450194L43.43838466674805,18.295857261450195L42.87906466674805,18.295857261450195L40.59020466674805,24.517679861450194L41.297814666748046,24.517679861450194L41.795884666748044,23.110519861450197L44.51350466674805,23.110519861450197L45.01157466674805,24.517679861450194L45.71918466674805,24.517679861450194ZM44.32168466674805,22.533469861450193L41.99736466674805,22.533469861450193L43.16758466674805,19.248469861450197L44.32168466674805,22.533469861450193ZM50.94326466674805,22.464159861450195L50.94326466674805,18.295858461450194L50.279164666748045,18.295858461450194L50.279164666748045,22.410969861450194C50.279164666748045,23.355519861450194,49.67636466674804,23.974479861450195,48.76726466674805,23.974479861450195C47.858164666748046,23.974479861450195,47.26496466674804,23.353909861450195,47.26496466674804,22.410969861450194L47.26496466674804,18.295858461450194L46.600864666748045,18.295858461450194L46.600864666748045,22.464159861450195C46.600864666748045,23.705299861450197,47.50996466674805,24.570879861450194,48.76726466674805,24.570879861450194C50.024464666748045,24.570879861450194,50.94326466674805,23.705299861450197,50.94326466674805,22.464159861450195ZM57.21506466674805,24.517689861450194L57.21506466674805,18.295859761450195L56.550964666748044,18.295859761450195L56.550964666748044,23.268479861450196L53.24826466674804,18.295859761450195L52.61956466674805,18.295859761450195L52.61956466674805,24.517689861450194L53.283664666748045,24.517689861450194L53.283664666748045,19.527329861450195L56.58646466674804,24.517689861450194L57.21506466674805,24.517689861450194ZM63.075864666748046,22.717219861450197L62.41176466674805,22.717219861450197C62.24566466674805,23.478029861450196,61.69446466674805,23.976099861450194,60.91756466674805,23.976099861450194C60.506464666748045,23.976099861450194,60.11316466674805,23.818129861450196,59.84236466674805,23.539279861450197C59.44906466674804,23.137919861450197,59.40556466674805,22.709169861450196,59.40556466674805,21.406769861450194C59.40556466674805,20.104379861450195,59.44906466674804,19.677229861450193,59.84236466674805,19.274269861450197C60.11316466674805,18.995411861450194,60.506464666748045,18.837448861450195,60.91756466674805,18.837448861450195C61.69606466674804,18.837448861450195,62.22796466674805,19.335519861450194,62.39396466674805,20.096319861450194L63.075864666748046,20.096319861450194C62.86626466674805,18.926100861450195,62.03616466674805,18.244279861450195,60.91756466674805,18.244279861450195C60.30506466674805,18.244279861450195,59.74726466674805,18.471554861450194,59.32656466674805,18.890640861450194C58.741464666748044,19.475749861450197,58.741464666748044,20.088259861450194,58.741464666748044,21.406769861450194C58.741464666748044,22.725279861450197,58.741464666748044,23.337789861450197,59.32656466674805,23.922909861450194C59.74566466674805,24.341989861450195,60.30506466674805,24.569259861450195,60.91756466674805,24.569259861450195C62.02806466674805,24.569259861450195,62.87436466674805,23.887439861450197,63.075864666748046,22.717219861450197ZM68.78826466674805,24.517689861450194L68.78826466674805,18.295859761450195L68.12416466674804,18.295859761450195L68.12416466674804,21.082789861450195L65.17126466674804,21.082789861450195L65.17126466674804,18.295859761450195L64.50716466674805,18.295859761450195L64.50716466674805,24.517689861450194L65.17126466674804,24.517689861450194L65.17126466674804,21.677569861450195L68.12416466674804,21.677569861450195L68.12416466674804,24.517689861450194L68.78826466674805,24.517689861450194Z" fill-rule="evenodd" fill="url(#master_svg1_79_13587)" fill-opacity="1"/></g><g><g><path d="M25.8158,8.88091L7.04227,8.88091L7.04227,26.3665L6.1638,28.1234L2.79499,27.6834L0.686658,25.3107L0,23.3056L0,5.6749Q3.0744e-7,-0.445383,6.14929,0.0349548L25.8158,0.0349548C28.2481,0.0349548,30.2387,2.02562,30.2387,4.45793C30.2387,6.89025,28.2481,8.88091,25.8158,8.88091Z" fill-rule="evenodd" fill="url(#master_svg2_79_13583)" fill-opacity="1"/></g><g><path d="M19.9179,19.490249213867187L15.6642,19.490249213867187L15.6642,21.672769213867188C16.6474,32.82366921386719,0,32.24016921386719,0,23.108869213867187C0.73179,28.370069213867186,9.24893,28.223369213867187,9.24893,22.05476921386719L9.2183,10.749069213867188L19.9179,10.749069213867188C22.3228,10.749069213867188,24.2893,12.715549213867188,24.2893,15.120469213867189C24.2893,17.525379213867186,22.3228,19.49186921386719,19.9179,19.49186921386719L19.9179,19.490249213867187Z" fill-rule="evenodd" fill="url(#master_svg3_79_13579)" fill-opacity="1"/></g></g></g></svg>