<svg xmlns="http://www.w3.org/2000/svg" xmlns:xlink="http://www.w3.org/1999/xlink" fill="none" version="1.1" width="36" height="36" viewBox="0 0 36 36"><g style="mix-blend-mode:passthrough"><g style="mix-blend-mode:passthrough" transform="matrix(-1,0,0,1,72,0)"><rect x="36" y="0" width="36" height="36" rx="8" fill="#242F4E" fill-opacity="1"/></g><g style="mix-blend-mode:passthrough"><g><path d="M25.111111,17.999998895511627L25.111111,10.888888895511627Q25.111111,10.801340995511627,25.128191,10.715474895511628Q25.145271,10.629609895511628,25.178774,10.548725895511627Q25.212277,10.467841895511627,25.260916,10.395048895511627Q25.309555,10.322254895511627,25.371461,10.260349895511627Q25.433366,10.198443895511627,25.50616,10.149804895511627Q25.578953,10.101165895511627,25.659837,10.067662895511628Q25.740721,10.034159895511626,25.826586,10.017079895511626Q25.9124521,9.999999895511626,26,9.999999895511626Q26.0875479,9.999999895511626,26.173414,10.017079895511626Q26.259279,10.034159895511626,26.340163,10.067662895511628Q26.421047,10.101165895511627,26.49384,10.149804895511627Q26.566634,10.198443895511627,26.628539,10.260349895511627Q26.690445,10.322254895511627,26.739084,10.395048895511627Q26.787723,10.467841895511627,26.821226,10.548725895511627Q26.854729,10.629609895511628,26.871809,10.715474895511628Q26.888889,10.801340995511627,26.888889,10.888888895511627L26.888889,17.999998895511627Q26.888889,18.087548895511627,26.871809,18.173408895511628Q26.854729,18.259278895511628,26.821226,18.340158895511628Q26.787723,18.42104889551163,26.739084,18.493838895511626Q26.690445,18.566628895511627,26.628539,18.62853889551163Q26.566634,18.69044889551163,26.49384,18.739078895511625Q26.421047,18.787718895511627,26.340163,18.821228895511627Q26.259279,18.854728895511627,26.173414,18.871808895511627Q26.0875479,18.888888895511627,26,18.888888895511627Q25.9124521,18.888888895511627,25.826586,18.871808895511627Q25.740721,18.854728895511627,25.659837,18.821228895511627Q25.578953,18.787718895511627,25.50616,18.739078895511625Q25.433366,18.69044889551163,25.371461,18.62853889551163Q25.309555,18.566628895511627,25.260916,18.493838895511626Q25.212277,18.42104889551163,25.178774,18.340158895511628Q25.145271,18.259278895511628,25.128191,18.173408895511628Q25.111111,18.087548895511627,25.111111,17.999998895511627ZM26.89,17.999998895511627Q26.89,18.087658895511627,26.872899,18.173628895511627Q26.855798,18.259598895511626,26.822253,18.340588895511626Q26.788708,18.421568895511626,26.740008,18.494458895511627Q26.691308,18.567338895511625,26.629325,18.629328895511627Q26.567342,18.691308895511625,26.494457,18.74000889551163Q26.421573,18.788708895511625,26.340588,18.822248895511628Q26.259603,18.855798895511626,26.17363,18.872898895511625Q26.0876573,18.889998895511628,26,18.889998895511628Q25.9123427,18.889998895511628,25.82637,18.872898895511625Q25.740397,18.855798895511626,25.659412,18.822248895511628Q25.578427,18.788708895511625,25.505543,18.74000889551163Q25.432658,18.691308895511625,25.370675,18.629328895511627Q25.308692,18.567338895511625,25.259992,18.494458895511627Q25.211292,18.421568895511626,25.177747,18.340588895511626Q25.144202,18.259598895511626,25.127101,18.173628895511627Q25.11,18.087658895511627,25.11,17.999998895511627Q25.11,17.912338895511628,25.127101,17.826368895511628Q25.144202,17.74039889551163,25.177747,17.65940889551163Q25.211292,17.578428895511628,25.259992,17.505538895511627Q25.308692,17.43265889551163,25.370675,17.370678895511627Q25.432658,17.30868889551163,25.505543,17.259988895511626Q25.578427,17.21128889551163,25.659412,17.177748895511627Q25.740397,17.14419889551163,25.82637,17.127098895511626Q25.9123427,17.109998895511627,26,17.109998895511627Q26.0876573,17.109998895511627,26.17363,17.127098895511626Q26.259603,17.14419889551163,26.340588,17.177748895511627Q26.421573,17.21128889551163,26.494457,17.259988895511626Q26.567342,17.30868889551163,26.629325,17.370678895511627Q26.691308,17.43265889551163,26.740008,17.505538895511627Q26.788708,17.578428895511628,26.822253,17.65940889551163Q26.855798,17.74039889551163,26.872899,17.826368895511628Q26.89,17.912338895511628,26.89,17.999998895511627ZM26.89,10.888888895511627Q26.89,10.976546195511627,26.872899,11.062518895511626Q26.855798,11.148491895511627,26.822253,11.229476895511628Q26.788708,11.310461895511628,26.740008,11.383345895511628Q26.691308,11.456230895511627,26.629325,11.518213895511627Q26.567342,11.580196895511627,26.494457,11.628896895511627Q26.421573,11.677596895511627,26.340588,11.711141895511627Q26.259603,11.744686895511627,26.17363,11.761787895511628Q26.0876573,11.778888895511628,26,11.778888895511628Q25.9123427,11.778888895511628,25.82637,11.761787895511628Q25.740397,11.744686895511627,25.659412,11.711141895511627Q25.578427,11.677596895511627,25.505543,11.628896895511627Q25.432658,11.580196895511627,25.370675,11.518213895511627Q25.308692,11.456230895511627,25.259992,11.383345895511628Q25.211292,11.310461895511628,25.177747,11.229476895511628Q25.144202,11.148491895511627,25.127101,11.062518895511626Q25.11,10.976546195511627,25.11,10.888888895511627Q25.11,10.801231595511627,25.127101,10.715258895511628Q25.144202,10.629285895511627,25.177747,10.548300895511627Q25.211292,10.467315895511627,25.259992,10.394431895511627Q25.308692,10.321546895511627,25.370675,10.259563895511628Q25.432658,10.197580895511628,25.505543,10.148880895511628Q25.578427,10.100180895511627,25.659412,10.066635895511627Q25.740397,10.033090895511627,25.82637,10.015989895511627Q25.9123427,9.998888895511627,26,9.998888895511627Q26.0876573,9.998888895511627,26.17363,10.015989895511627Q26.259603,10.033090895511627,26.340588,10.066635895511627Q26.421573,10.100180895511627,26.494457,10.148880895511628Q26.567342,10.197580895511628,26.629325,10.259563895511628Q26.691308,10.321546895511627,26.740008,10.394431895511627Q26.788708,10.467315895511627,26.822253,10.548300895511627Q26.855798,10.629285895511627,26.872899,10.715258895511628Q26.89,10.801231595511627,26.89,10.888888895511627Z" fill="#FEFEFE" fill-opacity="1"/></g><g><path d="M9.111111,25.11111L9.111111,18Q9.111111,17.9124521,9.128191,17.826586Q9.145271,17.740721,9.178774,17.659837Q9.212277,17.578953,9.260916,17.50616Q9.309555,17.433366,9.371461,17.371461Q9.433366,17.309555,9.50616,17.260916Q9.578953,17.212277,9.659837,17.178774Q9.740721,17.145271,9.826586,17.128191Q9.9124521,17.111111,10,17.111111Q10.0875479,17.111111,10.173414,17.128191Q10.259279,17.145271,10.340163,17.178774Q10.421047,17.212277,10.49384,17.260916Q10.566634,17.309555,10.628539,17.371461Q10.690445,17.433366,10.739084,17.50616Q10.787723,17.578953,10.821226,17.659837Q10.854729,17.740721,10.871809,17.826586Q10.888889,17.9124521,10.888889,18L10.888889,25.11111Q10.888889,25.19866,10.871809,25.28452Q10.854729,25.37039,10.821226,25.45127Q10.787723,25.53216,10.739084,25.60495Q10.690445,25.67774,10.628539,25.73965Q10.566634,25.801560000000002,10.49384,25.850189999999998Q10.421047,25.89883,10.340163,25.93234Q10.259279,25.96584,10.173414,25.98292Q10.0875479,26,10,26Q9.9124521,26,9.826586,25.98292Q9.740721,25.96584,9.659837,25.93234Q9.578953,25.89883,9.50616,25.850189999999998Q9.433366,25.801560000000002,9.371461,25.73965Q9.309555,25.67774,9.260916,25.60495Q9.212277,25.53216,9.178774,25.45127Q9.145271,25.37039,9.128191,25.28452Q9.111111,25.19866,9.111111,25.11111ZM10.89,25.11111Q10.89,25.19877,10.872899,25.28474Q10.855798,25.37071,10.822253,25.4517Q10.788708,25.53268,10.740008,25.60557Q10.691308,25.678449999999998,10.629325,25.74044Q10.567342,25.802419999999998,10.494457,25.85112Q10.421573,25.89982,10.340588,25.93336Q10.259603,25.96691,10.17363,25.984009999999998Q10.0876573,26.00111,10,26.00111Q9.9123427,26.00111,9.82637,25.984009999999998Q9.740397,25.96691,9.659412,25.93336Q9.578427,25.89982,9.505543,25.85112Q9.432658,25.802419999999998,9.370675,25.74044Q9.308692,25.678449999999998,9.259992,25.60557Q9.211292,25.53268,9.177747,25.4517Q9.144202,25.37071,9.127101,25.28474Q9.11,25.19877,9.11,25.11111Q9.11,25.02345,9.127101,24.93748Q9.144202,24.85151,9.177747,24.77052Q9.211292,24.68954,9.259992,24.61665Q9.308692,24.543770000000002,9.370675,24.48179Q9.432658,24.419800000000002,9.505543,24.3711Q9.578427,24.322400000000002,9.659412,24.28886Q9.740397,24.25531,9.82637,24.23821Q9.9123427,24.22111,10,24.22111Q10.0876573,24.22111,10.17363,24.23821Q10.259603,24.25531,10.340588,24.28886Q10.421573,24.322400000000002,10.494457,24.3711Q10.567342,24.419800000000002,10.629325,24.48179Q10.691308,24.543770000000002,10.740008,24.61665Q10.788708,24.68954,10.822253,24.77052Q10.855798,24.85151,10.872899,24.93748Q10.89,25.02345,10.89,25.11111ZM10.89,18Q10.89,18.0876573,10.872899,18.17363Q10.855798,18.259603,10.822253,18.340588Q10.788708,18.421573,10.740008,18.494457Q10.691308,18.567342,10.629325,18.629325Q10.567342,18.691308,10.494457,18.740008Q10.421573,18.788708,10.340588,18.822253Q10.259603,18.855798,10.17363,18.872899Q10.0876573,18.89,10,18.89Q9.9123427,18.89,9.82637,18.872899Q9.740397,18.855798,9.659412,18.822253Q9.578427,18.788708,9.505543,18.740008Q9.432658,18.691308,9.370675,18.629325Q9.308692,18.567342,9.259992,18.494457Q9.211292,18.421573,9.177747,18.340588Q9.144202,18.259603,9.127101,18.17363Q9.11,18.0876573,9.11,18Q9.11,17.9123427,9.127101,17.82637Q9.144202,17.740397,9.177747,17.659412Q9.211292,17.578427,9.259992,17.505543Q9.308692,17.432658,9.370675,17.370675Q9.432658,17.308692,9.505543,17.259992Q9.578427,17.211292,9.659412,17.177747Q9.740397,17.144202,9.82637,17.127101Q9.9123427,17.11,10,17.11Q10.0876573,17.11,10.17363,17.127101Q10.259603,17.144202,10.340588,17.177747Q10.421573,17.211292,10.494457,17.259992Q10.567342,17.308692,10.629325,17.370675Q10.691308,17.432658,10.740008,17.505543Q10.788708,17.578427,10.822253,17.659412Q10.855798,17.740397,10.872899,17.82637Q10.89,17.9123427,10.89,18Z" fill="#FEFEFE" fill-opacity="1"/></g><g><path d="M24.1729,24.39593Q21.590400000000002,26.88889,18,26.88889Q16.19216,26.88889,14.53977,26.18999Q12.94444,25.51522,11.71461,24.28539Q10.484782,23.05556,9.81001,21.46023Q9.111111,19.80785,9.11111,18.0000000959325Q9.11111,17.9124522,9.12819,17.826586Q9.14527,17.740721,9.178773,17.659837Q9.212276,17.578953,9.260916,17.50616Q9.309555,17.433366,9.37146,17.371461Q9.433366,17.309555,9.50616,17.260916Q9.578953,17.212277,9.659837,17.178774Q9.740721,17.145271,9.826586,17.128191Q9.9124521,17.111111,10,17.111111Q10.0875479,17.111111,10.173414,17.128191Q10.259279,17.145271,10.340163,17.178774Q10.421047,17.212277,10.49384,17.260916Q10.566633,17.309555,10.628539,17.371461Q10.690445,17.433366,10.739084,17.50616Q10.787723,17.578953,10.821226,17.659837Q10.854729,17.740721,10.871808,17.826586Q10.888888,17.912452,10.888888,17.9999999040675Q10.888888,20.94551,12.97169,23.02831Q15.054490000000001,25.11111,18,25.11111Q20.8723,25.11111,22.938200000000002,23.11687Q23.0012,23.056060000000002,23.0748,23.00872Q23.1485,22.96137,23.2299,22.929299999999998Q23.3114,22.89723,23.3976,22.88167Q23.4837,22.8661,23.571199999999997,22.86765Q23.6588,22.86919,23.744300000000003,22.88779Q23.829900000000002,22.90638,23.9102,22.9413Q23.9904,22.97623,24.0624,23.026139999999998Q24.1343,23.07606,24.1951,23.13905Q24.2559,23.20204,24.3032,23.27568Q24.3506,23.34932,24.3827,23.43078Q24.4147,23.51224,24.430300000000003,23.598399999999998Q24.4458,23.68455,24.4443,23.77208Q24.4428,23.85962,24.4242,23.94517Q24.4056,24.03072,24.3706,24.111Q24.3357,24.19128,24.285800000000002,24.2632Q24.2359,24.33513,24.1729,24.39593ZM24.4456,23.7564Q24.4456,23.84406,24.4285,23.930030000000002Q24.4114,24.016,24.3778,24.096989999999998Q24.3443,24.177970000000002,24.2956,24.25086Q24.2469,24.32374,24.1849,24.38572Q24.1229,24.44771,24.05,24.49641Q23.9771,24.54511,23.8961,24.57865Q23.8152,24.6122,23.7292,24.6293Q23.6432,24.6464,23.5556,24.6464Q23.4679,24.6464,23.3819,24.6293Q23.296,24.6122,23.215,24.57865Q23.134,24.54511,23.0611,24.49641Q22.9882,24.44771,22.9262,24.38572Q22.8642,24.32374,22.8155,24.25086Q22.7668,24.177970000000002,22.7333,24.096989999999998Q22.6998,24.016,22.6827,23.930030000000002Q22.665599999999998,23.84406,22.665599999999998,23.7564Q22.665599999999998,23.66874,22.6827,23.58277Q22.6998,23.4968,22.7333,23.41581Q22.7668,23.33483,22.8155,23.26194Q22.8642,23.189059999999998,22.9262,23.12707Q22.9882,23.065089999999998,23.0611,23.01639Q23.134,22.96769,23.215,22.93415Q23.296,22.9006,23.3819,22.883499999999998Q23.4679,22.8664,23.5556,22.8664Q23.6432,22.8664,23.7292,22.883499999999998Q23.8152,22.9006,23.8961,22.93415Q23.9771,22.96769,24.05,23.01639Q24.1229,23.065089999999998,24.1849,23.12707Q24.2469,23.189059999999998,24.2956,23.26194Q24.3443,23.33483,24.3778,23.41581Q24.4114,23.4968,24.4285,23.58277Q24.4456,23.66874,24.4456,23.7564ZM10.89,18Q10.89,18.0876573,10.872899,18.17363Q10.855798,18.259603,10.822253,18.340588Q10.788708,18.421573,10.740008,18.494457Q10.691308,18.567342,10.629325,18.629325Q10.567342,18.691308,10.494457,18.740008Q10.421573,18.788708,10.340588,18.822253Q10.259603,18.855798,10.17363,18.872899Q10.0876573,18.89,10,18.89Q9.9123427,18.89,9.82637,18.872899Q9.740397,18.855798,9.659412,18.822253Q9.578427,18.788708,9.505543,18.740008Q9.432658,18.691308,9.370675,18.629325Q9.308692,18.567342,9.259992,18.494457Q9.211292,18.421573,9.177747,18.340588Q9.144202,18.259603,9.127101,18.17363Q9.11,18.0876573,9.11,18Q9.11,17.9123427,9.127101,17.82637Q9.144202,17.740397,9.177747,17.659412Q9.211292,17.578427,9.259992,17.505543Q9.308692,17.432658,9.370675,17.370675Q9.432658,17.308692,9.505543,17.259992Q9.578427,17.211292,9.659412,17.177747Q9.740397,17.144202,9.82637,17.127101Q9.9123427,17.11,10,17.11Q10.0876573,17.11,10.17363,17.127101Q10.259603,17.144202,10.340588,17.177747Q10.421573,17.211292,10.494457,17.259992Q10.567342,17.308692,10.629325,17.370675Q10.691308,17.432658,10.740008,17.505543Q10.788708,17.578427,10.822253,17.659412Q10.855798,17.740397,10.872899,17.82637Q10.89,17.9123427,10.89,18Z" fill="#FEFEFE" fill-opacity="1"/></g><g><path d="M11.603530582046508,11.82709Q12.839459582046509,10.546779,14.465585582046508,9.841549Q16.14983558204651,9.111111,17.999455582046508,9.111111Q19.80730558204651,9.111111,21.45968558204651,9.810011Q23.055055582046506,10.484783,24.28485558204651,11.71461Q25.514655582046508,12.94444,26.18945558204651,14.53977Q26.888355582046508,16.192149999999998,26.888355582046508,18Q26.888355582046508,18.08755,26.87125558204651,18.17341Q26.85415558204651,18.25928,26.82065558204651,18.340159999999997Q26.78715558204651,18.42105,26.73855558204651,18.49384Q26.68985558204651,18.56663,26.62795558204651,18.62854Q26.56605558204651,18.690440000000002,26.49325558204651,18.73908Q26.420455582046507,18.78772,26.33965558204651,18.82123Q26.25875558204651,18.85473,26.17285558204651,18.87181Q26.086955582046507,18.88889,25.999455582046508,18.88889Q25.91195558204651,18.88889,25.826055582046507,18.87181Q25.74015558204651,18.85473,25.65925558204651,18.82123Q25.57845558204651,18.78772,25.505655582046508,18.73908Q25.432855582046507,18.690440000000002,25.37095558204651,18.62854Q25.30905558204651,18.56663,25.260355582046508,18.49384Q25.211755582046507,18.42105,25.17825558204651,18.340159999999997Q25.144755582046507,18.25928,25.127655582046508,18.17341Q25.11055558204651,18.08755,25.11055558204651,18Q25.11055558204651,15.054490000000001,23.02775558204651,12.97169Q20.944965582046507,10.888889,17.999455582046508,10.888889Q14.98017558204651,10.888888,12.88258058204651,13.0618Q12.821776582046509,13.12479,12.749851582046508,13.174710000000001Q12.67792758204651,13.22462,12.597647582046509,13.25954Q12.51736658204651,13.29447,12.431815582046509,13.31306Q12.346264582046508,13.33165,12.25873018204651,13.33319Q12.17119588204651,13.33474,12.085042582046508,13.31918Q11.99888858204651,13.303609999999999,11.91742658204651,13.27154Q11.83596458204651,13.23947,11.76232558204651,13.19212Q11.688685582046508,13.14477,11.62569758204651,13.08397Q11.562709582046509,13.02317,11.512794582046508,12.95124Q11.462879582046508,12.87932,11.42795558204651,12.79904Q11.39303158204651,12.71876,11.374440582046509,12.6332Q11.355848582046509,12.54765,11.35430458204651,12.46012Q11.352761582046508,12.37258,11.368324582046508,12.28643Q11.38388658204651,12.20028,11.415958582046509,12.11882Q11.448030582046508,12.03735,11.49537858204651,11.96371Q11.54272558204651,11.89007,11.603530582046508,11.82709ZM13.13305558204651,12.44444Q13.13305558204651,12.5321,13.115954582046509,12.61807Q13.098853582046509,12.70405,13.065308582046509,12.785029999999999Q13.031763582046509,12.866019999999999,12.983063582046508,12.9389Q12.934363582046508,13.01179,12.872380582046508,13.07377Q12.810397582046509,13.13575,12.73751258204651,13.18445Q12.66462858204651,13.23315,12.58364358204651,13.2667Q12.502658582046509,13.30024,12.416685582046508,13.31734Q12.330712882046509,13.33444,12.243055582046509,13.33444Q12.155398282046509,13.33444,12.06942558204651,13.31734Q11.983452582046509,13.30024,11.902467582046508,13.2667Q11.821482582046508,13.23315,11.748598582046508,13.18445Q11.675713582046509,13.13575,11.613730582046509,13.07377Q11.55174758204651,13.01179,11.50304758204651,12.9389Q11.454347582046509,12.866019999999999,11.420802582046509,12.785029999999999Q11.387257582046509,12.70405,11.370156582046508,12.61807Q11.353055582046508,12.5321,11.353055582046508,12.44444Q11.353055582046508,12.35679,11.370156582046508,12.27081Q11.387257582046509,12.18484,11.420802582046509,12.103860000000001Q11.454347582046509,12.022870000000001,11.50304758204651,11.94999Q11.55174758204651,11.8771,11.613730582046509,11.81512Q11.675713582046509,11.75314,11.748598582046508,11.70444Q11.821482582046508,11.65574,11.902467582046508,11.62219Q11.983452582046509,11.58865,12.06942558204651,11.57155Q12.155398282046509,11.55444,12.243055582046509,11.55444Q12.330712882046509,11.55444,12.416685582046508,11.57155Q12.502658582046509,11.58865,12.58364358204651,11.62219Q12.66462858204651,11.65574,12.73751258204651,11.70444Q12.810397582046509,11.75314,12.872380582046508,11.81512Q12.934363582046508,11.8771,12.983063582046508,11.94999Q13.031763582046509,12.022870000000001,13.065308582046509,12.103860000000001Q13.098853582046509,12.18484,13.115954582046509,12.27081Q13.13305558204651,12.35679,13.13305558204651,12.44444ZM26.88945558204651,18Q26.88945558204651,18.08766,26.87235558204651,18.17363Q26.85525558204651,18.2596,26.821755582046507,18.34059Q26.788155582046507,18.42157,26.73945558204651,18.49446Q26.690755582046506,18.56734,26.62875558204651,18.62932Q26.56675558204651,18.69131,26.49395558204651,18.740009999999998Q26.42105558204651,18.788710000000002,26.34005558204651,18.82225Q26.259055582046507,18.855800000000002,26.17305558204651,18.8729Q26.087155582046506,18.89,25.999455582046508,18.89Q25.91175558204651,18.89,25.825855582046508,18.8729Q25.73985558204651,18.855800000000002,25.65885558204651,18.82225Q25.57785558204651,18.788710000000002,25.50495558204651,18.740009999999998Q25.43215558204651,18.69131,25.370155582046507,18.62932Q25.30815558204651,18.56734,25.25945558204651,18.49446Q25.21075558204651,18.42157,25.17715558204651,18.34059Q25.14365558204651,18.2596,25.126555582046507,18.17363Q25.109455582046508,18.08766,25.109455582046508,18Q25.109455582046508,17.91234,25.126555582046507,17.82637Q25.14365558204651,17.7404,25.17715558204651,17.65941Q25.21075558204651,17.57843,25.25945558204651,17.50554Q25.30815558204651,17.43266,25.370155582046507,17.37067Q25.43215558204651,17.30869,25.50495558204651,17.259990000000002Q25.57785558204651,17.211289999999998,25.65885558204651,17.17775Q25.73985558204651,17.144199999999998,25.825855582046508,17.1271Q25.91175558204651,17.11,25.999455582046508,17.11Q26.087155582046506,17.11,26.17305558204651,17.1271Q26.259055582046507,17.144199999999998,26.34005558204651,17.17775Q26.42105558204651,17.211289999999998,26.49395558204651,17.259990000000002Q26.56675558204651,17.30869,26.62875558204651,17.37067Q26.690755582046506,17.43266,26.73945558204651,17.50554Q26.788155582046507,17.57843,26.821755582046507,17.65941Q26.85525558204651,17.7404,26.87235558204651,17.82637Q26.88945558204651,17.91234,26.88945558204651,18Z" fill="#FEFEFE" fill-opacity="1"/></g></g></g></svg>