<svg xmlns="http://www.w3.org/2000/svg" xmlns:xlink="http://www.w3.org/1999/xlink" fill="none" version="1.1" width="24" height="24" viewBox="0 0 24 24"><defs><clipPath id="master_svg0_87_25621"><rect x="0" y="0" width="24" height="24" rx="0"/></clipPath></defs><g clip-path="url(#master_svg0_87_25621)"><g><path d="M0.580078125,11.42C0.580078125,5.11296,5.693038125,0,12.000078125,0C18.307178125,0,23.420178125,5.11284,23.420178125,11.4199C23.420178125,17.727,18.307178125,22.84,12.000078125,22.84C5.693038125,22.84,0.580078125,17.7271,0.580078125,11.42ZM21.980178125,11.42C21.980178125,5.91696,17.503078125,1.44,12.000078125,1.44C6.497158125,1.44,2.020078125,5.91684,2.020078125,11.4199C2.020078125,16.923,6.497158125,21.4,12.000078125,21.4C17.503078125,21.4,21.980178125,16.9231,21.980178125,11.42ZM12.000278125,4.46094C11.602678125,4.46094,11.280278125,4.78329,11.280278125,5.18094L11.280278125,11.3814C11.279578125,11.3939,11.279278125,11.4065,11.279278125,11.4192C11.279278125,11.5493,11.313778125,11.6714,11.374178125,11.7767C11.498078125,11.9942,11.731978125,12.1409,12.000278125,12.1409C12.017178125,12.1409,12.033878125,12.1404,12.050478125,12.1392L18.239978125,12.1392C18.637678125,12.1392,18.959978125,11.8169,18.959978125,11.4192C18.959978125,11.0216,18.637678125,10.6992,18.239978125,10.6992L12.720278125,10.6992L12.720278125,5.18094C12.720278125,4.78329,12.397878125,4.46094,12.000278125,4.46094Z" fill-rule="evenodd" fill="#5868E9" fill-opacity="1"/></g></g></svg>