<svg xmlns="http://www.w3.org/2000/svg" xmlns:xlink="http://www.w3.org/1999/xlink" fill="none" version="1.1" width="28" height="28" viewBox="0 0 28 28"><g style="opacity:0.5;"><path d="M14,0C6.26798,0,0,6.26798,0,14C0,21.732,6.26798,28,14,28C21.732,28,28,21.732,28,14C28,6.26798,21.732,0,14,0ZM19.8629,14.9295L11.9084,20.1795C11.5664,20.4049,11.1282,20.4244,10.7676,20.2302C10.4069,20.0361,10.1819,19.6596,10.1818,19.25L10.1818,8.75099C10.1818,8.34125,10.4069,7.96462,10.7677,7.77043C11.1285,7.57624,11.5667,7.59585,11.9087,7.82151L19.8633,13.0715C20.5303,13.5117,20.5303,14.4903,19.8633,14.9305L19.8629,14.9295Z" fill="#FFFFFF" fill-opacity="1"/></g></svg>